<mxfile host="app.diagrams.net" modified="2023-11-13T14:55:21.880Z" agent="Mozilla/5.0 (Windows NT 10.0; Win64; x64) AppleWebKit/537.36 (KHTML, like Gecko) Chrome/110.0.0.0 Safari/537.36" etag="KD-QSbqIb6oVLqIxJtWL" version="22.1.0" type="device">
  <diagram name="Página-1" id="dGLqrQgNi_OV72VLULxh">
    <mxGraphModel dx="954" dy="559" grid="1" gridSize="10" guides="1" tooltips="1" connect="1" arrows="1" fold="1" page="1" pageScale="1" pageWidth="827" pageHeight="1169" math="0" shadow="0">
      <root>
        <mxCell id="0" />
        <mxCell id="1" parent="0" />
        <mxCell id="esSYXq6FdQtjAJZxS0nW-1" value="&lt;font style=&quot;font-size: 18px&quot;&gt;EMPLEADO(&lt;font color=&quot;#ff0000&quot;&gt;&lt;u&gt;DNI_empleado&lt;/u&gt;&lt;/font&gt;, Nombre, Apellidos)&lt;/font&gt;" style="text;html=1;align=left;verticalAlign=middle;resizable=0;points=[];autosize=1;" vertex="1" parent="1">
          <mxGeometry x="260" y="200" width="410" height="40" as="geometry" />
        </mxCell>
        <mxCell id="esSYXq6FdQtjAJZxS0nW-5" value="&lt;font style=&quot;font-size: 18px&quot;&gt;DESPACHO(&lt;u style=&quot;border-color: var(--border-color); color: rgb(255, 0, 0);&quot;&gt;DNI_empleado&lt;/u&gt;, Dirección)&lt;/font&gt;" style="text;html=1;align=left;verticalAlign=middle;resizable=0;points=[];autosize=1;" vertex="1" parent="1">
          <mxGeometry x="260" y="280" width="340" height="40" as="geometry" />
        </mxCell>
        <mxCell id="esSYXq6FdQtjAJZxS0nW-8" style="edgeStyle=orthogonalEdgeStyle;rounded=0;orthogonalLoop=1;jettySize=auto;html=1;entryX=0.115;entryY=1.025;entryDx=0;entryDy=0;entryPerimeter=0;" edge="1" parent="1" source="esSYXq6FdQtjAJZxS0nW-5" target="esSYXq6FdQtjAJZxS0nW-1">
          <mxGeometry relative="1" as="geometry" />
        </mxCell>
      </root>
    </mxGraphModel>
  </diagram>
</mxfile>
